Coordinates
version=1
nRows=16
nColumns=36
inDegrees=yes

Units are S.I. units (second, meters, Newtons, ...)
If the header above contains a line with 'inDegrees', this indicates whether rotational values are in degrees (yes) or radians (no).

endheader
time	pelvis_tilt	pelvis_list	pelvis_rotation	pelvis_tx	pelvis_ty	pelvis_tz	hip_flexion_r	hip_adduction_r	hip_rotation_r	knee_angle_r	knee_angle_r_beta	ankle_angle_r	subtalar_angle_r	mtp_angle_r	hip_flexion_l	hip_adduction_l	hip_rotation_l	knee_angle_l	knee_angle_l_beta	ankle_angle_l	subtalar_angle_l	mtp_angle_l	lumbar_extension	lumbar_bending	lumbar_rotation	arm_flex_r	arm_add_r	arm_rot_r	elbow_flex_r	pro_sup_r	arm_flex_l	arm_add_l	arm_rot_l	elbow_flex_l	pro_sup_l
     44.96666670	      5.15549208	     -4.59114402	     -0.55325512	      0.57543045	      1.02172689	      0.71984214	     15.13221568	      4.74466032	     -1.48138605	     12.21496839	      0.21319142	     -0.90343030	     -4.98406790	     -7.49999987	    -16.49166443	     -6.27361203	     -4.69804506	     23.01338614	      0.40165936	     12.52738249	     -5.72403266	     -7.49999987	    -15.64411972	      4.83633208	      4.99254615	     -2.03995609	    -15.94361334	     -0.65666204	     27.10634970	     90.60600221	     17.51494916	    -14.12717283	     20.81900161	     24.99910937	     90.53080345
     44.98333330	      5.35586906	     -5.46350470	     -0.51118894	      0.57736039	      1.02077857	      0.72256304	     14.42063148	      5.93689034	     -0.68998769	     13.40655692	      0.23398856	     -0.31329488	     -6.15567115	     -7.49999987	    -15.82921430	     -7.49988177	     -5.10837126	     26.71611301	      0.46628414	     11.31520680	     -6.50727546	     -7.49999987	    -15.49463152	      6.08959277	      4.83538688	     -1.17298319	    -16.40380558	      0.76124387	     26.47911492	     90.54073004	     16.27014058	    -13.46768540	     19.88164612	     24.23538916	     90.24330436
     45.00000000	      5.61575788	     -6.32743264	     -0.45024670	      0.57939308	      1.02209089	      0.72484710	     13.51549815	      7.12523057	      0.02578952	     14.41574753	      0.25160226	      0.91634021	     -6.97055563	     -7.49999987	    -14.82011216	     -8.78785575	     -5.44586376	     30.91071720	      0.53949379	      9.71154753	     -7.36933520	     -7.49999987	    -15.51642919	      7.33414325	      4.87599034	     -0.46901409	    -16.78594032	      2.00256985	     26.22922402	     89.45376464	     15.23262472	    -12.70376448	     18.97927446	     23.42925766	     89.08350032
     45.01666670	      6.00939551	     -7.20676248	     -0.24534954	      0.58363647	      1.02436182	      0.72696268	     12.26691880	      8.33309769	      0.62629832	     15.17327670	      0.26482364	      2.28230558	     -7.88160139	     -7.49999987	    -13.51739400	    -10.19622418	     -5.56073699	     35.57736777	      0.62094221	      7.65647779	     -8.23616927	     -7.49999987	    -15.65708994	      8.55969792	      5.08449990	      0.02791331	    -17.24264021	      3.18999589	     26.14332642	     90.64085737	     14.55360198	    -11.73255347	     18.00109980	     21.97408524	     90.45147393
     45.03333330	      6.63394327	     -7.92461139	     -0.19767409	      0.58731520	      1.02571522	      0.72938888	     10.52637198	      9.47197924	      1.51878936	     15.64866528	      0.27312073	      3.99907746	     -8.39425086	     -7.49999987	    -12.20406390	    -11.48456844	     -5.82570219	     40.43488641	      0.70572190	      5.32041851	     -8.64722612	     -7.49999987	    -16.20611016	      9.39996757	      5.58879526	      0.48475785	    -17.31755754	      3.18757200	     26.29532348	     90.58905826	     13.73001240	    -11.29942653	     18.05165242	     21.69079505	     90.43929043
     45.05000000	      6.82934647	     -8.84205232	      0.39961022	      0.58733285	      1.02509142	      0.72980388	      9.00366348	     10.62760353	      1.43959243	     15.54380797	      0.27129063	      5.09119614	     -8.90277979	     -7.49999987	     -9.79070551	    -12.86271539	     -4.85842681	     45.73319619	      0.79819485	      3.55020365	    -10.38938535	     -7.49999987	    -15.94392922	     10.77841453	      5.52674532	      0.95098842	    -17.80416633	      4.11325067	     26.20559342	     90.36538488	     13.16071242	    -10.17248185	     17.60887648	     19.53984978	     90.56374971
     45.06666670	      7.22334658	     -9.36276060	      0.79607067	      0.58401713	      1.02503069	      0.73033917	      7.11434464	     11.39357702	      1.59039198	     15.05436146	      0.26274817	      6.17047394	     -8.90457576	     -7.49999987	     -7.48984298	    -13.69408579	     -4.04148530	     50.59831275	      0.88310715	      2.51652642	    -11.63015643	     -7.49999987	    -16.25099986	     11.50832825	      5.80775369	      1.27044450	    -18.25358554	      4.93417999	     26.94717461	     89.40625185	     12.70130779	     -9.58669759	     18.07260072	     18.53485946	     90.34017841
     45.08333330	      7.54904438	     -9.53279852	      1.13546038	      0.58041495	      1.02734163	      0.73109628	      5.20998769	     11.75677450	      1.73686444	     14.27890160	      0.24921385	      6.87167536	     -8.93373907	     -7.49999987	     -4.94987650	    -14.00219172	     -3.09249024	     54.97079102	      0.95942130	      2.24902105	    -12.90987895	     -7.49999987	    -16.60634744	     11.76957998	      6.29118638	      1.34350438	    -18.76776339	      5.64135460	     28.09635320	     88.56813564	     12.70019414	     -9.17918309	     19.74548156	     17.39130340	     91.04972299
     45.10000000	      7.88773559	     -9.43754903	      1.37006572	      0.57716262	      1.03122514	      0.73248624	      3.27239058	     11.79895411	      1.65271980	     13.42136568	      0.23424702	      7.51515521	     -8.44987014	     -7.49999987	     -2.29322730	    -13.96214186	     -2.16900346	     58.79558511	      1.02617655	      2.38206835	    -13.99916767	     -7.49999987	    -17.13612171	     11.67873528	      6.68192974	      1.61136219	    -19.14319461	      5.89697846	     29.07720578	     87.07156225	     12.67688004	     -8.92609937	     20.89169676	     16.71238940	     90.71428871
     45.11666670	      8.28396569	     -9.09540708	      1.56007130	      0.57210784	      1.03555245	      0.73471217	      1.28357876	     11.56786498	      1.42130679	     12.52584595	      0.21861725	      7.93546281	     -7.82407389	     -7.49999987	      0.43364357	    -13.62155443	     -1.21416613	     62.04339109	      1.08286145	      2.34718284	    -14.88766674	     -7.49999987	    -17.92462902	     11.26781328	      7.09518989	      1.74630080	    -19.38547795	      5.23252051	     30.54778714	     87.37749013	     12.76761803	     -8.86824145	     21.93345458	     16.49145969	     92.32268686
     45.13333330	      8.59248452	     -8.57211731	      1.48251206	      0.56512940	      1.03845141	      0.73844727	     -0.47428401	     11.13884340	      1.35624878	     11.77043030	      0.20543276	      8.31764969	     -7.08091792	     -7.49999987	      3.18405739	    -13.05988912	     -0.52101030	     64.61691202	      1.12777787	      1.93075864	    -15.42803096	     -7.49999987	    -18.73839241	     10.55208219	      7.48697327	      2.32417896	    -19.60926431	      5.34203519	     31.44802181	     86.49803645	     12.83836732	     -8.71686496	     21.87003893	     16.15974304	     91.67802366
     45.15000000	      8.97088897	     -7.96831764	      1.33021812	      0.55935773	      1.03889546	      0.74371626	     -2.19487317	     10.63900541	      1.47152047	     11.00004913	      0.19198708	      8.46102894	     -6.72753321	     -7.49999987	      5.60274098	    -12.41240354	     -0.02253842	     66.34881660	      1.15800530	      1.48609106	    -15.67249599	     -7.49999987	    -19.81418124	      9.72179452	      7.70471912	      2.97391493	    -19.75460896	      5.23682373	     32.93620643	     84.69835216	     12.47915638	     -8.90256465	     21.61608144	     17.05027383	     89.89256152
     45.16666670	      9.09735977	     -7.27587302	      1.09129082	      0.55727502	      1.03857367	      0.74962702	     -3.52285560	      9.98934618	      1.31174191	     10.34935879	      0.18063039	      9.09409529	     -5.36392172	     -7.49999987	      7.82229229	    -11.66209670	      0.23204642	     66.99618088	      1.16930394	      1.64649139	    -15.09104499	     -7.49999987	    -20.39524008	      8.66782096	      8.32384013	      3.22393652	    -19.73298108	      4.01673669	     34.03702325	     88.56762886	     12.84271077	     -8.64059521	     20.65529543	     16.10415196	     94.86558703
     45.18333330	      9.19903941	     -6.61395677	      0.79191536	      0.55827782	      1.03943851	      0.75487565	     -4.85584343	      9.38248113	      1.42702255	      9.60137302	      0.16757557	      9.44327806	     -4.41151371	     -7.49999987	      9.56100867	    -10.93569960	      0.23242987	     66.48698389	      1.16041678	      2.39218100	    -14.38912669	     -7.49999987	    -20.90486160	      7.66350770	      8.47709774	      3.95605649	    -19.82142539	      4.64546792	     34.90584485	     86.50187471	     12.57692175	     -8.74074879	     20.81847629	     15.95357882	     92.58972402
     45.20000000	      9.15473597	     -6.00014068	      0.43201829	      0.56053653	      1.04160892	      0.75870352	     -6.15429545	      8.82375466	      1.76596354	      8.76287349	      0.15294099	      9.57715476	     -3.86563201	     -7.49999987	     11.10381889	    -10.20526501	      0.06872004	     64.81746389	      1.13127816	      3.51655179	    -13.69632124	     -7.49999987	    -21.15351474	      6.71702117	      8.52709559	      4.60026946	    -19.83991476	      4.61935467	     35.74916679	     86.37267728	     12.02270937	     -8.97165684	     20.82795909	     16.15649026	     92.42807062
     45.21666670	      9.14447825	     -5.44230682	     -0.01590436	      0.56165157	      1.04411079	      0.76061130	     -7.58573311	      8.26675310	      2.10903936	      7.87942685	      0.13752194	      9.61365691	     -3.11945318	     -7.49999987	     12.39115026	     -9.54603619	     -0.39500812	     62.16751568	      1.08502784	      4.88141098	    -13.03508425	     -7.49999987	    -21.39646754	      5.79274956	      8.68402794	      5.17777925	    -19.87549849	      4.54625455	     36.55517772	     86.55616203	     11.58023057	     -9.06707967	     20.76531587	     16.02396390	     92.72247401
